<svg xmlns="http://www.w3.org/2000/svg" viewBox="0 0 1440 320">
  <path fill="#467750" fill-opacity="1" d="M0,256L21.8,229.3C43.6,203,87,149,131,160C174.5,171,218,245,262,272C305.5,299,349,277,393,245.3C436.4,213,480,171,524,170.7C567.3,171,611,213,655,202.7C698.2,192,742,128,785,133.3C829.1,139,873,213,916,218.7C960,224,1004,160,1047,112C1090.9,64,1135,32,1178,69.3C1221.8,107,1265,213,1309,224C1352.7,235,1396,149,1418,106.7L1440,64L1440,320L1418.2,320C1396.4,320,1353,320,1309,320C1265.5,320,1222,320,1178,320C1134.5,320,1091,320,1047,320C1003.6,320,960,320,916,320C872.7,320,829,320,785,320C741.8,320,698,320,655,320C610.9,320,567,320,524,320C480,320,436,320,393,320C349.1,320,305,320,262,320C218.2,320,175,320,131,320C87.3,320,44,320,22,320L0,320Z"></path>
</svg>